<svg width="1600" height="1000" viewBox="0 0 1600 1000" fill="none" xmlns="http://www.w3.org/2000/svg">
  <g stroke="#22D3EE" stroke-opacity="0.17" stroke-width="1.2">
    <path d="M-120 130C60 80 220 220 410 170C650 110 760 10 980 90C1190 170 1360 120 1720 70"/>
    <path d="M-120 210C70 160 240 300 430 250C670 190 780 100 1000 170C1210 240 1380 210 1720 150"/>
    <path d="M-120 290C90 240 250 370 460 320C690 270 830 170 1060 240C1280 310 1430 280 1720 220"/>
    <path d="M-120 370C80 320 270 430 490 390C720 350 870 260 1090 330C1320 410 1470 350 1720 300"/>
    <path d="M-120 450C90 390 300 500 520 460C750 420 900 320 1140 400C1360 470 1500 430 1720 370"/>
    <path d="M-120 540C140 500 330 560 560 530C790 500 980 410 1190 480C1410 560 1540 520 1720 470"/>
    <path d="M-120 640C180 590 370 640 600 620C840 600 1020 510 1250 580C1450 640 1590 620 1720 590"/>
    <path d="M-120 750C220 700 420 740 640 730C900 720 1060 620 1300 680C1500 730 1620 700 1720 680"/>
    <path d="M-120 860C260 810 460 840 700 840C950 840 1110 740 1370 790C1540 820 1650 810 1720 800"/>
  </g>
</svg>
